<?xml version="1.0" standalone="no"?><!DOCTYPE svg PUBLIC "-//W3C//DTD SVG 1.1//EN" "http://www.w3.org/Graphics/SVG/1.1/DTD/svg11.dtd"><svg t="1528986363510" class="icon" style="" viewBox="0 0 1024 1024" version="1.1" xmlns="http://www.w3.org/2000/svg" p-id="2705" xmlns:xlink="http://www.w3.org/1999/xlink" width="64" height="64"><defs><style type="text/css"></style></defs><path d="M915.892706 465.468235l-35.945412-65.039059-67.403294 121.976471a7.424 7.424 0 0 1-7.875765 3.704471 7.439059 7.439059 0 0 1-6.023529-6.294589l-8.944941-64-58.925177 26.488471a7.484235 7.484235 0 0 1-9.59247-10.405647l64.015058-115.817412a146.748235 146.748235 0 0 1-2.665411-221.138823c-27.798588-5.812706-58.864941-10.917647-89.283765-10.917647-102.128941 0-150.467765 41.456941-161.340235 52.239058-7.830588 4.111059-13.974588 10.345412-18.612706 17.528471l-69.285647 0.466824c-5.827765-7.469176-13.056-13.854118-21.157647-17.950118-11.008-10.330353-61.741176-36.879059-164.352-36.879059-111.736471 0-211.862588 34.334118-215.973647 36.382118-21.082353 10.375529-32.105412 36.231529-32.105412 56.380235v650.149647c0 8.990118 2.048 16.519529 6.113882 22.347294a26.202353 26.202353 0 0 0 21.820236 11.369412c5.722353 0 11.715765-1.671529 17.965176-5.074824 0.858353-0.466824 86.076235-31.954824 194.725647-31.954823 105.456941 0 151.175529 29.756235 151.552 30.147765l2.108235 2.183529 2.800942 1.174588c5.255529 2.228706 10.631529 3.343059 15.99247 3.343059 6.640941 0 17.829647-0.933647 17.829647-0.933647l84.073412-0.512c5.616941 1.114353 13.056 0.828235 22.151529-3.568941l3.297883-1.701647 2.153411-2.785883c0.316235-0.421647 33.897412-27.361882 139.776-27.361882 111.284706 0 204.950588 32.150588 205.778824 32.572235 6.008471 3.132235 12.348235 4.698353 18.477176 4.698353s12.047059-1.566118 17.212236-4.698353c9.893647-5.978353 15.555765-16.655059 15.555764-29.274353V526.652235c-0.135529-0.225882-0.331294-0.391529-0.466823-0.63247l-33.445647-60.55153zM473.735529 885.368471l-4.47247-661.835295 28.521412-0.180705 4.47247 661.850353-28.521412 0.165647z" p-id="2706"></path><path d="M965.556706 353.822118a7.228235 7.228235 0 0 1-0.737882-4.592942c-2.800941 2.108235-5.872941 3.824941-8.83953 5.692236l-2.499765 0.933647a133.014588 133.014588 0 0 0 60.491295-111.510588 133.195294 133.195294 0 1 0-266.390589 0 132.924235 132.924235 0 0 0 56.229647 108.574117c-0.120471 0.301176-0.150588 0.617412-0.301176 0.918588l-58.443294 105.743059 47.600941-21.383529a7.439059 7.439059 0 0 1 10.435765 5.767529l7.228235 51.696941 62.253176-112.685176c0-2.017882 0.527059-3.945412 1.295059-5.782588 2.304 0.120471 4.577882 0.346353 6.896941 0.346353 4.803765 0 9.547294-0.286118 14.21553-0.783059a15.058824 15.058824 0 0 1 1.490823 6.219294l62.268236 112.685176 7.228235-51.696941a7.469176 7.469176 0 0 1 10.435765-5.767529L1024 459.565176l-58.443294-105.743058z m-111.932235-143.525647a12.739765 12.739765 0 0 0 9.562353-6.957177l22.422588-45.417412 22.39247 45.417412c1.837176 3.749647 5.436235 6.324706 9.562353 6.957177l50.130824 7.273411-36.246588 35.358118a12.8 12.8 0 0 0-3.674353 11.279059l8.56847 49.889882-44.815059-23.567059a12.724706 12.724706 0 0 0-11.821176 0l-44.845177 23.567059 8.568471-49.889882a12.769882 12.769882 0 0 0-3.674353-11.279059l-36.246588-35.358118 50.115765-7.273411z" p-id="2707"></path></svg>