<?xml version="1.0" standalone="no"?><!DOCTYPE svg PUBLIC "-//W3C//DTD SVG 1.1//EN" "http://www.w3.org/Graphics/SVG/1.1/DTD/svg11.dtd"><svg t="1532754543486" class="icon" style="" viewBox="0 0 1024 1024" version="1.1" xmlns="http://www.w3.org/2000/svg" p-id="936" xmlns:xlink="http://www.w3.org/1999/xlink" width="64" height="64"><defs><style type="text/css"></style></defs><path d="M715.38915555 784.60472889c-67.14026667 0-121.57269333-54.43128889-121.57269333-121.57155556 0-67.13571555 54.43242667-121.56472889 121.57269333-121.56472888s121.56586667 54.43128889 121.56586667 121.56472888C836.95502222 730.17571555 782.53169778 784.60472889 715.38915555 784.60472889L715.38915555 784.60472889zM600.56462222 851.23527111c-22.62471111 0-25.62616889-10.96021333-25.62616889-10.96021333l-88.22328888 123.41134222 70.74816-8.20337778 39.12590222 60.95872c0 0 81.43303111-119.89674667 81.43303111-118.72142222C635.85507555 896.65194667 652.59178667 852.41059555 600.56462222 851.23527111L600.56462222 851.23527111zM536.14023111 476.06784l0-49.55818667c0-3.91395555-3.16074667-7.07925333-7.06104889-7.07925333L239.25646222 419.4304c-3.89461333 0-7.05422222 3.16416-7.05422222 7.07925333l0 49.55818667c0 3.90712889 3.15960889 7.07925333 7.05422222 7.07925333L529.07804445 483.14709333C532.98062222 483.14709333 536.14023111 479.97610667 536.14023111 476.06784L536.14023111 476.06784zM805.36348445 883.75068445c-16.96654222 18.75171555-38.14172445 15.13813333-38.14172445 15.13813333l99.53166222 121.06524444 24.42467556-65.64295111 69.61265777 9.37528889L871.43537778 847.31107555C806.95978667 854.34481778 820.06584889 870.84828445 805.36348445 883.75068445L805.36348445 883.75068445zM977.64124445 4.25984l-931.20284445-0.21390222C20.79061333 4.04593778 0 24.81493333 0 50.44110222l0.03754667 792.33706667c0 25.54311111 20.39808 45.57482667 45.568 45.57482666l399.61258666 0.20821334 43.58257778-59.17354667-313.28597333-0.02275555c0-60.44785778-47.70360889-109.45308445-109.35182223-109.45308445l0-544.69973333c61.64935111 0 109.35182222-46.72853333 109.35182223-107.17866667 0-0.13653333-0.00568889-0.27079111-0.00568889-0.4096l671.78154666 0c0 0.13880889-0.00682667 0.27306667-0.00682666 0.4096 0 60.45013333 49.98030222 109.45422222 111.62737778 109.45422223L958.91114667 775.55484445c0 33.56444445-19.46168889 33.15598222-19.46168889 33.15598222L988.68337778 868.12444445c26.37368889-12.86826667 35.24721778-31.01582222 35.24721777-49.99850667L1024 50.63111111C1024 25.01973333 1003.24693333 4.25984 977.64124445 4.25984L977.64124445 4.25984zM239.25532445 545.85230222c-3.89461333 0-7.05422222 3.16529778-7.05422223 7.07925333l0 49.55818667c0 3.90712889 3.15960889 7.07925333 7.05422223 7.07925333l226.61233777 0c3.90144 0 7.06104889-3.17212445 7.06104889-7.07925333l0-49.55818667c0-3.91281778-3.15847111-7.07925333-7.05991111-7.07925333L239.25532445 545.85230222zM239.25532445 355.2768L784.73671111 355.2768c3.90257778 0 7.06104889-3.17098667 7.06104889-7.08494222l0-49.54680889c0-3.91281778-3.15960889-7.08494222-7.05991111-7.08494222L239.25646222 291.56010667c-3.89461333 0-7.05422222 3.16984889-7.05422222 7.08380444l0 49.54680889C232.20224 352.10467555 235.36298667 355.2768 239.25532445 355.2768L239.25532445 355.2768zM799.44817778 851.75978667c10.97841778-19.12718222 27.20426667-28.83584 48.67640889-29.12824889 21.46531555-0.29582222 32.34474667-11.57347555 32.62919111-33.82385778s9.65063111-39.06446222 28.10311111-50.44906667c18.45134222-11.38460445 22.43356445-26.77532445 11.94666666-46.20060444-10.49372445-19.41731555-10.49372445-38.83576889 0-58.25422222 10.48689778-19.41731555 6.50467555-34.816-11.94666666-46.19377778-18.45248-11.38460445-27.81866667-28.19754667-28.10311111-50.45361778-0.28444445-22.25152-11.16273778-33.51893333-32.62919111-33.81816889-21.47214222-0.29127111-37.69912889-10.00561778-48.67754667-29.12711111-10.97955555-19.12604445-25.84120889-23.24821333-44.57813333-12.37674666-18.73578667 10.86577778-37.47043555 10.86577778-56.20622222 0-18.73464889-10.87260445-33.58833778-6.75043555-44.57472 12.37674666-10.97955555 19.12149333-27.20426667 28.83584-48.67754667 29.12711111-21.46645333 0.29696-32.34474667 11.56778667-32.62919111 33.81816889-0.28444445 22.25493333-9.65176889 39.07128889-28.10311112 50.45361778-18.45134222 11.37777778-22.43356445 26.77532445-11.94666666 46.19377778 10.49258667 19.41845333 10.49258667 38.83690667 0 58.25422222-10.48689778 19.42414222-6.50467555 34.81713778 11.94666666 46.20060444s27.81866667 28.19754667 28.10311112 50.44906667 11.1616 33.52576 32.62919111 33.82272c21.47214222 0.29240889 37.69799111 10.00106667 48.67754667 29.12824889 10.98524445 19.12149333 25.83893333 23.24821333 44.57585777 12.37674666 18.73692445-10.87260445 37.47157333-10.87260445 56.20508445 0C773.60696889 875.00686222 788.46862222 870.87900445 799.44817778 851.75978667L799.44817778 851.75978667zM824.45994667 639.42428445L746.15466667 632.77511111l-30.76551112-69.72074666-30.76323555 69.72074666-78.30414222 6.64917334 59.28504889 49.74592-17.62417778 73.83608888 67.40764444-38.97571555L782.79111111 763.01312l-17.61166222-73.83608889 59.27822222-49.75388444L824.45994667 639.42428445z" p-id="937"></path></svg>