<?xml version="1.0" standalone="no"?><!DOCTYPE svg PUBLIC "-//W3C//DTD SVG 1.1//EN" "http://www.w3.org/Graphics/SVG/1.1/DTD/svg11.dtd"><svg t="1534939278222" class="icon" style="" viewBox="0 0 1024 1024" version="1.1" xmlns="http://www.w3.org/2000/svg" p-id="2022" xmlns:xlink="http://www.w3.org/1999/xlink" width="64" height="64"><defs><style type="text/css"></style></defs><path d="M398.976 532.352c3.584 0.64 7.296 0.96 11.072 0.96h240.64a64 64 0 0 0 11.2-0.96c5.248 0.64 10.624 0.96 16 0.96 73.344 0 132.8-61.12 132.8-136.576 0-75.136-59.008-136.128-131.968-136.576-15.552-77.952-83.392-136.576-164.672-136.576-82.048 0-150.4 59.776-165.056 138.88-77.184 11.648-135.68 67.328-135.68 134.272 0 75.456 74.304 136.576 165.952 136.576 6.656 0 13.248-0.32 19.712-0.96zM128 0h768a64 64 0 0 1 64 64v576a64 64 0 0 1-64 64H128a64 64 0 0 1-64-64V64a64 64 0 0 1 64-64z m0 768h768a64 64 0 0 1 64 64v128a64 64 0 0 1-64 64H128a64 64 0 0 1-64-64v-128a64 64 0 0 1 64-64z m655.104 79.552a48 48 0 0 0 0 96h16a48 48 0 0 0 0-96h-16z m-224 0a48 48 0 0 0 0 96h16a48 48 0 1 0 0-96h-16z" fill="#5A5A5A" p-id="2023"></path></svg>