<?xml version="1.0" standalone="no"?><!DOCTYPE svg PUBLIC "-//W3C//DTD SVG 1.1//EN" "http://www.w3.org/Graphics/SVG/1.1/DTD/svg11.dtd"><svg t="1528986642959" class="icon" style="" viewBox="0 0 1024 1024" version="1.1" xmlns="http://www.w3.org/2000/svg" p-id="4031" xmlns:xlink="http://www.w3.org/1999/xlink" width="64" height="64"><defs><style type="text/css"></style></defs><path d="M653.389 488.435V205.657L512 64.268 370.611 205.657v94.259H87.832v659.816h848.335V488.435H653.389zM276.351 865.473h-94.259v-94.259h94.259v94.259z m0-188.519h-94.259v-94.26h94.259v94.26z m0-188.519h-94.259v-94.259h94.259v94.259zM559.13 865.473h-94.26v-94.259h94.259v94.259z m0-188.519h-94.26v-94.26h94.259v94.26z m0-188.519h-94.26v-94.259h94.259v94.259z m0-188.519h-94.26v-94.259h94.259v94.259z m282.778 565.557h-94.259v-94.259h94.259v94.259z m0-188.519h-94.259v-94.26h94.259v94.26z" p-id="4032"></path></svg>