<?xml version="1.0" standalone="no"?><!DOCTYPE svg PUBLIC "-//W3C//DTD SVG 1.1//EN" "http://www.w3.org/Graphics/SVG/1.1/DTD/svg11.dtd"><svg t="1528986665006" class="icon" style="" viewBox="0 0 1024 1024" version="1.1" xmlns="http://www.w3.org/2000/svg" p-id="4156" xmlns:xlink="http://www.w3.org/1999/xlink" width="64" height="64"><defs><style type="text/css"></style></defs><path d="M105.176946 415.254585 443.048093 626.409726c18.812461 11.757788 43.273573 18.24555 68.899206 18.24555 25.623587 0 50.085722-6.487761 68.898183-18.24555l337.871147-211.155141c23.0029-14.380522 36.192294-35.922141 36.192294-59.060117s-13.190417-44.680619-36.192294-59.060117L580.844459 85.97921c-37.625946-23.515576-100.172467-23.515576-137.797389 0L105.176946 297.134351c-23.0029 14.379499-36.193317 35.922141-36.193317 59.060117S82.174046 400.874063 105.176946 415.254585zM137.990283 349.625866 475.86143 138.470725c8.974395-5.622044 22.137183-8.839319 36.084846-8.839319s27.110451 3.217275 36.084846 8.839319L885.90227 349.625866c5.243421 3.270487 6.946202 6.081509 7.136537 6.325056-0.190335 0.730641-1.893116 3.540639-7.136537 6.811126L548.031123 573.918211c-17.947767 11.244089-54.221926 11.244089-72.169693 0L137.990283 362.762047c-5.243421-3.270487-6.946202-6.080485-7.136537-6.325056C131.04408 355.708398 132.746862 352.897376 137.990283 349.625866z" p-id="4157"></path><path d="M445.507098 775.992533c18.650779 12.43317 42.571584 18.650779 66.493413 18.650779 23.920806 0 47.842635-6.216585 66.493413-18.650779l365.279381-243.536642c13.784958-9.163707 17.514909-27.786857 8.324596-41.545208-9.136078-13.758352-27.813462-17.460674-41.544185-8.29799l-365.305987 243.536642c-17.407462 11.622712-49.085952 11.5695-66.493413 0L113.447307 482.611669c-13.757329-9.162684-32.408107-5.460362-41.544185 8.29799-9.18929 13.757329-5.459339 32.381501 8.29799 41.545208L445.507098 775.992533z" p-id="4158"></path><path d="M910.552693 643.627876l-365.305987 243.536642c-17.407462 11.5695-49.085952 11.5695-66.493413 0L113.447307 643.627876c-13.757329-9.162684-32.408107-5.460362-41.544185 8.29799-9.18929 13.757329-5.459339 32.381501 8.29799 41.545208l365.305987 243.536642c18.650779 12.43317 42.571584 18.650779 66.493413 18.650779 23.920806 0 47.842635-6.216585 66.493413-18.650779l365.279381-243.536642c13.784958-9.163707 17.514909-27.786857 8.324596-41.545208C942.960801 638.167514 924.283416 634.465193 910.552693 643.627876z" p-id="4159"></path></svg>