<?xml version="1.0" standalone="no"?><!DOCTYPE svg PUBLIC "-//W3C//DTD SVG 1.1//EN" "http://www.w3.org/Graphics/SVG/1.1/DTD/svg11.dtd"><svg t="1532754170412" class="icon" style="" viewBox="0 0 1024 1024" version="1.1" xmlns="http://www.w3.org/2000/svg" p-id="896" xmlns:xlink="http://www.w3.org/1999/xlink" width="64" height="64"><defs><style type="text/css"></style></defs><path d="M810.661425 853.331427a127.99857001 127.99857001 0 1 0-127.99857101-127.99857 127.99857001 127.99857001 0 0 0 127.99857101 127.99857z m-597.334286 85.328568A127.99857001 127.99857001 0 1 0 85.328568 810.661425a127.99857001 127.99857001 0 0 0 127.998571 127.99857z m298.66714299-511.99428099a170.668573 170.668573 0 1 0-170.657136-170.66857301 170.668573 170.668573 0 0 0 170.657136 170.66857301zM665.610865 568.868557l-52.39112301-77.677474a256.94638 256.94638 0 0 1-190.67120899 4.75763101l-82.54947101 143.037716a213.029787 213.029787 0 0 1 86.666652 171.67499499c0 117.797112-95.507153 213.327139-213.32713899 213.327138S0 928.48140999 0 810.661425 95.507153 597.33428601 213.327139 597.33428601a213.956152 213.956152 0 0 1 48.925829 5.63824999l86.472229-149.819627a255.471057 255.471057 0 0 1-92.739493-197.190078C255.997141 114.617733 370.61487399 0 511.99428201 0s255.997141 114.617733 255.99714099 255.997141a255.322381 255.322381 0 0 1-83.109866 188.795604l53.75208 79.66744499a212.94972999 212.94972999 0 0 1 72.05066101-12.465908c117.797112 0 213.327139 95.507153 213.32713899 213.32713801s-95.530027 213.338575-213.350012 213.338575S597.33428601 843.15284199 597.33428601 725.332857A212.72099801 212.72099801 0 0 1 665.610865 568.868557z" p-id="897"></path></svg>