<?xml version="1.0" standalone="no"?><!DOCTYPE svg PUBLIC "-//W3C//DTD SVG 1.1//EN" "http://www.w3.org/Graphics/SVG/1.1/DTD/svg11.dtd"><svg t="1532041795732" class="icon" style="" viewBox="0 0 1167 1024" version="1.1" xmlns="http://www.w3.org/2000/svg" p-id="7004" xmlns:xlink="http://www.w3.org/1999/xlink" width="145.875" height="128"><defs><style type="text/css"></style></defs><path d="M936.540925 204.071174l-302.462633 0c-10.932384 0-21.864769 10.932384-21.864769 21.864769 0 10.932384 10.932384 21.864769 21.864769 21.864769l302.462633 0c10.932384 0 21.864769-10.932384 21.864769-21.864769C958.405694 215.003559 947.47331 204.071174 936.540925 204.071174L936.540925 204.071174 936.540925 204.071174zM936.540925 317.039146l-302.462633 0c-10.932384 0-21.864769 10.932384-21.864769 21.864769 0 10.932384 10.932384 21.864769 21.864769 21.864769l302.462633 0c10.932384 0 21.864769-10.932384 21.864769-21.864769C958.405694 327.97153 947.47331 317.039146 936.540925 317.039146L936.540925 317.039146 936.540925 317.039146zM736.113879 451.871886c0-10.932384-10.932384-21.864769-21.864769-21.864769l-80.170819 0c-10.932384 0-21.864769 10.932384-21.864769 21.864769 0 10.932384 10.932384 21.864769 21.864769 21.864769l80.170819 0C728.825623 473.736655 736.113879 462.80427 736.113879 451.871886L736.113879 451.871886 736.113879 451.871886zM331.615658 484.669039c-3.644128 3.644128-10.932384 10.932384-18.220641 14.576512-10.932384 7.288256-21.864769 10.932384-36.441281 14.576512-14.576512 3.644128-25.508897 7.288256-40.085409 10.932384-10.932384 3.644128-21.864769 10.932384-32.797153 18.220641-10.932384 7.288256-14.576512 18.220641-18.220641 32.797153-3.644128 25.508897-3.644128 43.729537-3.644128 61.950178 3.644128 14.576512 3.644128 25.508897 7.288256 29.153025 3.644128 3.644128 7.288256 3.644128 18.220641 7.288256 7.288256 3.644128 18.220641 3.644128 32.797153 7.288256 10.932384 3.644128 25.508897 3.644128 43.729537 3.644128 14.576512 0 32.797153 3.644128 47.373665 3.644128 14.576512 0 29.153025 3.644128 47.373665 3.644128 14.576512 0 29.153025 0 40.085409 0 10.932384 0 25.508897 0 40.085409 0 14.576512 0 29.153025-3.644128 47.373665-3.644128 18.220641 0 32.797153-3.644128 47.373665-3.644128 10.932384 0 18.220641-3.644128 25.508897-3.644128l0-160.341637c-3.644128 0-7.288256 0-7.288256-3.644128-10.932384-3.644128-21.864769-7.288256-32.797153-10.932384-10.932384-3.644128-18.220641-7.288256-25.508897-14.576512-7.288256-3.644128-10.932384-10.932384-14.576512-18.220641-3.644128-7.288256-3.644128-10.932384-3.644128-18.220641 0-7.288256 0-10.932384 0-18.220641 0-10.932384 3.644128-14.576512 10.932384-21.864769 3.644128-3.644128 10.932384-7.288256 18.220641-14.576512 3.644128-3.644128 7.288256-7.288256 7.288256-10.932384 3.644128-3.644128 3.644128-10.932384 7.288256-14.576512 3.644128-7.288256 3.644128-10.932384 7.288256-18.220641 3.644128 0 7.288256-3.644128 10.932384-7.288256 3.644128-3.644128 7.288256-7.288256 7.288256-10.932384 3.644128-3.644128 3.644128-10.932384 3.644128-18.220641 0-7.288256 0-10.932384 0-14.576512 0-3.644128-3.644128-7.288256-3.644128-10.932384 0-3.644128-3.644128-7.288256-7.288256-7.288256 0-14.576512 0-32.797153-3.644128-47.373665-3.644128-14.576512-3.644128-25.508897-10.932384-43.729537-3.644128-14.576512-10.932384-29.153025-21.864769-40.085409-3.644128-3.644128-10.932384-10.932384-18.220641-14.576512-7.288256-3.644128-14.576512-10.932384-25.508897-14.576512-10.932384-3.644128-18.220641-7.288256-29.153025-10.932384-10.932384-3.644128-21.864769-3.644128-32.797153-3.644128-7.288256 0-18.220641 0-25.508897 3.644128-10.932384 0-18.220641 3.644128-29.153025 7.288256-10.932384 3.644128-18.220641 7.288256-29.153025 14.576512-7.288256 7.288256-18.220641 14.576512-25.508897 25.508897-7.288256 10.932384-14.576512 21.864769-18.220641 36.441281-3.644128 14.576512-7.288256 25.508897-7.288256 40.085409-3.644128 14.576512-3.644128 29.153025-3.644128 43.729537-3.644128 3.644128-7.288256 7.288256-7.288256 10.932384 0 3.644128-3.644128 7.288256-3.644128 14.576512 0 3.644128 0 10.932384 3.644128 18.220641 3.644128 7.288256 3.644128 10.932384 7.288256 14.576512 3.644128 3.644128 3.644128 7.288256 7.288256 7.288256 3.644128 3.644128 3.644128 3.644128 7.288256 3.644128 3.644128 7.288256 3.644128 10.932384 7.288256 18.220641 3.644128 3.644128 3.644128 10.932384 7.288256 14.576512 3.644128 3.644128 3.644128 7.288256 7.288256 10.932384 7.288256 3.644128 10.932384 10.932384 18.220641 14.576512 3.644128 3.644128 7.288256 10.932384 10.932384 21.864769 0 7.288256 0 10.932384 0 18.220641 0 3.644128 0 10.932384-3.644128 14.576512C338.903915 477.380783 335.259786 481.024911 331.615658 484.669039L331.615658 484.669039 331.615658 484.669039zM142.120996 736.113879c-29.153025-3.644128-51.017794-29.153025-51.017794-58.30605l0-564.839858c0-32.797153 25.508897-54.661922 58.30605-54.661922l856.370107 0c32.797153 0 61.950178 25.508897 61.950178 54.661922l0 349.836299c14.576512 10.932384 43.729537 21.864769 58.30605 36.441281l0-422.718861c0-43.729537-54.661922-76.52669-98.391459-76.52669l-914.676157 0c-43.729537 0-80.170819 47.373665-80.170819 91.103203l0 604.925267c0 40.085409 32.797153 91.103203 69.238434 94.747331l488.313167 0c-3.644128-10.932384-7.288256-43.729537-7.288256-54.661922L142.120996 736.113879 142.120996 736.113879 142.120996 736.113879zM757.978648 699.672598c-7.288256 0-14.576512 3.644128-18.220641 7.288256-3.644128 3.644128-7.288256 10.932384-7.288256 18.220641 0 7.288256 3.644128 14.576512 7.288256 18.220641l112.967972 105.679715c7.288256 3.644128 14.576512 7.288256 21.864769 7.288256 7.288256 0 14.576512-3.644128 18.220641-10.932384l153.053381-204.071174c7.288256-10.932384 7.288256-29.153025-7.288256-36.441281-10.932384-7.288256-29.153025-7.288256-36.441281 7.288256l-134.83274 182.206406-91.103203-83.814947C772.55516 703.316726 765.266904 699.672598 757.978648 699.672598L757.978648 699.672598zM900.099644 459.160142c-145.765125 0-266.021352 120.256228-266.021352 266.021352s120.256228 266.021352 266.021352 266.021352c145.765125 0 266.021352-120.256228 266.021352-266.021352C1166.120996 579.41637 1045.864769 459.160142 900.099644 459.160142L900.099644 459.160142 900.099644 459.160142zM900.099644 940.185053c-120.256228 0-218.647687-98.391459-218.647687-215.003559s98.391459-215.003559 218.647687-215.003559 218.647687 98.391459 218.647687 215.003559S1020.355872 940.185053 900.099644 940.185053L900.099644 940.185053 900.099644 940.185053z" p-id="7005"></path></svg>