<?xml version="1.0" standalone="no"?><!DOCTYPE svg PUBLIC "-//W3C//DTD SVG 1.1//EN" "http://www.w3.org/Graphics/SVG/1.1/DTD/svg11.dtd"><svg t="1532753996762" class="icon" style="" viewBox="0 0 1024 1024" version="1.1" xmlns="http://www.w3.org/2000/svg" p-id="732" xmlns:xlink="http://www.w3.org/1999/xlink" width="64" height="64"><defs><style type="text/css"></style></defs><path d="M643.62664853 484.30469547c49.5585824-38.9151072 81.53703787-99.19357227 81.53703787-166.94026347 0-117.09460907-95.25861867-212.3575936-212.36523413-212.3575936-117.0902432 0-212.3466784 95.25643627-212.3466784 212.3575936 0 67.7466912 32.00465173 128.02624747 81.53812906 166.94026347-130.51711147 52.16405653-223.10803947 179.68165333-223.10803946 328.57898133l0 104.84113067 707.855008 0 0-104.84113067C866.7357792 663.9459616 774.16886507 536.468752 643.62664853 484.30469547L643.62664853 484.30469547 643.62664853 484.30469547zM512.80390933 175.791248c78.0779904 0 141.56772693 63.49628587 141.56772694 141.57318507 0 78.08235627-63.48973653 141.57755093-141.56772694 141.57755093-78.07034987 0-141.56554347-63.49519467-141.56554346-141.57755093C371.23836587 239.28644267 434.73355947 175.791248 512.80390933 175.791248L512.80390933 175.791248 512.80390933 175.791248zM795.9491872 848.2818848L229.6651808 848.2818848l0-35.398208c0-156.12323413 127.01876907-283.15728427 283.17256533-283.15728427 156.12214293 0 283.1103488 127.03405013 283.1103488 283.15728427L795.94809493 848.2818848 795.9491872 848.2818848 795.9491872 848.2818848zM275.87823467 496.6105664c0.97036693-2.1383008 0.97036693-4.4184992 1.45173013-6.63429867 0.34710507-1.34257813 0.7269568-2.62621333 0.90596693-4.04628906 0.27069867-2.79430827 0.10260373-5.4532672-0.28052266-8.18317547-0.13644053-1.45718827 0.20520747-2.83906027-0.13644054-4.29079147-0.21066453-0.82737707-0.79681493-1.41789333-1.04022506-2.24854506-0.5468544-1.58598827-1.30983147-3.006064-2.06953494-4.48835734-1.456096-3.04426773-3.04426773-5.8069216-5.22186346-8.26067306-0.31326827-0.34601387-0.69311893-0.59051627-1.03476694-0.93653014-3.21672853-3.347712-6.91591253-5.90515947-11.12920533-7.74001493-38.29839467-17.07256747-63.04657707-55.09480533-63.04657707-96.98432213 0-49.288976 33.3865248-91.7362624 81.2237696-103.23986134 19.01111893-4.5996928 30.69482027-23.7188736 26.13333014-42.72999253-4.63571307-19.00566187-23.82038507-30.54746347-42.72890027-26.127872-79.73492693 19.22287467-135.41915733 90.00837547-135.41915733 172.09881813 0 44.79188587 17.04528 86.78618987 46.005664 118.71989227C77.38084587 519.2521024 17.3086784 614.727936 17.3086784 722.74759253l0 54.74770027c0 19.561248 15.83150187 35.388384 35.38947627 35.388384 19.56452267 0 35.3971168-15.827136 35.3971168-35.388384l0-54.74770027c0-97.89028907 65.80813973-181.88435413 160.23610666-205.674176C260.0783872 515.41757013 270.76552427 508.26261333 275.87823467 496.6105664L275.87823467 496.6105664 275.87823467 496.6105664zM855.9875168 471.51855253c28.96256747-31.9337024 45.9969312-73.9280064 45.9969312-118.7264416 0-79.94450027-53.84937387-150.24863787-130.95590507-170.95053226-18.83756587-5.0483104-38.26128213 6.12018987-43.37945066 24.99050133-5.07778133 18.90305813 6.12128107 38.29402773 24.9915936 43.37945067 46.2425248 12.4041088 78.56262827 54.6068928 78.56262826 102.58603733 0 41.88405867-24.70779627 79.83643947-62.97562773 96.95157653-4.278784 1.86760213-8.052192 4.45670293-11.29730027 7.84370987-0.28270507 0.31326827-0.62217067 0.51956693-0.90269226 0.8339264-2.21143253 2.4482944-3.79851307 5.28735467-5.28844694 8.3632768-0.71931627 1.48338453-1.5172224 2.87071467-2.03569706 4.4184992-0.24122773 0.79681493-0.82846827 1.42007573-1.0358592 2.24854507-0.34492267 1.45173013 0 2.8336032-0.138624 4.28533333-0.38094293 2.72990827-0.55340373 5.39432427-0.2794304 8.19409067 0.1724608 1.41352747 0.55340373 2.69716267 0.90050986 4.040832 0.48354667 2.21579947 0.48354667 4.49599787 1.45173014 6.6397568 5.11816853 11.6454976 15.79875627 18.80591147 27.5468576 20.45629973 94.42796693 23.78982293 160.23501547 107.78497813 160.23501546 205.674176l0 54.74770027c0 19.561248 15.83259307 35.388384 35.398208 35.388384 19.55797333 0 35.38947627-15.827136 35.38947627-35.388384l0-54.74770027C1008.1670656 614.727936 948.099264 519.2521024 855.9875168 471.51855253L855.9875168 471.51855253 855.9875168 471.51855253zM855.9875168 471.51855253" p-id="733"></path></svg>