<?xml version="1.0" standalone="no"?><!DOCTYPE svg PUBLIC "-//W3C//DTD SVG 1.1//EN" "http://www.w3.org/Graphics/SVG/1.1/DTD/svg11.dtd"><svg t="1528985400708" class="icon" style="" viewBox="0 0 1025 1024" version="1.1" xmlns="http://www.w3.org/2000/svg" p-id="2093" xmlns:xlink="http://www.w3.org/1999/xlink" width="64.0625" height="64"><defs><style type="text/css"></style></defs><path d="M828.238 346.146h-249.802v32.993h249.803v-32.993zM578.437 577.094h66.658v-32.992h-66.658v32.992zM828.238 445.124h-249.802v32.993h249.803v-32.993zM811.406 544.102c-82.925 0-150.151 66.616-150.151 148.803s67.226 148.803 150.151 148.803c82.923 0 150.149-66.617 150.149-148.803 0-82.188-67.225-148.803-150.149-148.803zM810.688 786.39c-7.932 7.765-20.788 7.765-28.719 0l-64.598-63.27c-7.911-7.765-7.911-20.357 0-28.122 7.933-7.763 20.788-7.763 28.702 0l50.245 49.207 96.915-94.897c7.912-7.764 20.79-7.764 28.702 0 7.933 7.763 7.933 20.346 0 28.111l-111.248 108.971zM138.086 775.724c-23.798 0-43.093-19.296-43.093-43.093v-476.037c0-23.798 19.295-43.093 43.093-43.093h729.879c23.796 0 43.093 19.295 43.093 43.093v283.769c12.325 7.951 23.626 17.332 33.664 27.908v-323.123c0-35.697-28.932-64.64-64.64-64.64h-753.442c-35.708 0-64.64 28.943-64.64 64.64v498.93c0 35.696 28.932 64.638 64.64 64.638h543.59c-8.445-10.132-15.805-21.187-21.903-32.993h-510.24zM204.113 329.239c-14.12 0-25.565 11.108-25.565 24.828v297.88c0 13.708 11.446 24.818 25.565 24.818h281.132c14.098 0 26.617-11.11 26.617-24.818v-297.88c0-13.719-12.519-24.828-26.617-24.828h-281.132zM228.752 643.301c0 0-2.567-24.861 10.816-41.547 7.701-7.111 11.91-26.048 52.836-31.877 40.925-5.828 27.227-49.593 28.574-48.942 1.326 0.652-0.358-9.384-0.358-9.384s-22.682-27.626-22.346-52.561c0.337-24.924 0-20.789 0-20.789s-0.821-59.147 41.031-59.147l32.404 10.921c37.6 0 40.252 48.226 40.252 48.226v24.428c0 0 0.105 34.129-23.483 46.87 0 0-1.662 10.036-0.337 9.384 1.347-0.641-22.282 45.165 18.664 50.993 40.946 5.829 52.204 24.083 59.925 31.204 7.702 7.122 11.511 42.22 11.511 42.22h-249.487z" p-id="2094"></path></svg>