<?xml version="1.0" standalone="no"?><!DOCTYPE svg PUBLIC "-//W3C//DTD SVG 1.1//EN" "http://www.w3.org/Graphics/SVG/1.1/DTD/svg11.dtd"><svg t="1532754812724" class="icon" style="" viewBox="0 0 1024 1024" version="1.1" xmlns="http://www.w3.org/2000/svg" p-id="996" xmlns:xlink="http://www.w3.org/1999/xlink" width="64" height="64"><defs><style type="text/css"></style></defs><path d="M293.54666667 773.11999999h-36.40888889c-20.02488889 0-36.40888889-16.384-36.40888889-36.40888888s16.384-36.40888889 36.40888889-36.4088889h36.40888889c20.02488889 0 36.40888889 16.384 36.40888888 36.4088889s-16.384 36.40888889-36.40888888 36.40888888zM293.54666667 554.66666666h-36.40888889c-20.02488889 0-36.40888889-16.384-36.40888889-36.40888889s16.384-36.40888889 36.40888889-36.40888889h36.40888889c20.02488889 0 36.40888889 16.384 36.40888888 36.40888889s-16.384 36.40888889-36.40888888 36.40888889zM766.86222222 773.11999999H439.18222222c-20.02488889 0-36.40888889-16.384-36.40888889-36.40888888s16.384-36.40888889 36.40888889-36.4088889h327.68c20.02488889 0 36.40888889 16.384 36.40888889 36.4088889s-16.384 36.40888889-36.40888889 36.40888888zM766.86222222 554.66666666H439.18222222c-20.02488889 0-36.40888889-16.384-36.40888889-36.40888889s16.384-36.40888889 36.40888889-36.40888889h327.68c20.02488889 0 36.40888889 16.384 36.40888889 36.40888889s-16.384 36.40888889-36.40888889 36.40888889z" p-id="997"></path><path d="M912.49777778 991.57333333H111.50222222c-60.07466667 0-109.22666667-49.152-109.22666667-109.22666667V299.80444444c0-60.07466667 49.152-109.22666667 109.22666667-109.22666667h145.63555556c20.02488889 0 36.40888889 16.384 36.40888889 36.40888889s-16.384 36.40888889-36.40888889 36.40888889h-145.63555556c-20.02488889 0-36.40888889 16.384-36.40888889 36.40888889v582.54222222c0 20.02488889 16.384 36.40888889 36.40888889 36.40888889h800.99555556c20.02488889 0 36.40888889-16.384 36.40888889-36.40888889V299.80444444c0-20.02488889-16.384-36.40888889-36.40888889-36.40888889h-145.63555556c-20.02488889 0-36.40888889-16.384-36.40888889-36.40888889s16.384-36.40888889 36.40888889-36.40888889h145.63555556c60.07466667 0 109.22666667 49.152 109.22666667 109.22666667v582.54222222c0 60.07466667-49.152 109.22666667-109.22666667 109.22666667z" p-id="998"></path><path d="M530.20444445 372.62222221h-36.4088889c-60.07466667 0-109.22666667-49.152-109.22666666-109.22666666V117.75999999c0-60.07466667 49.152-109.22666667 109.22666666-109.22666666h36.4088889c60.07466667 0 109.22666667 49.152 109.22666666 109.22666666v145.63555556c0 60.07466667-49.152 109.22666667-109.22666666 109.22666666zM493.79555555 81.35111111c-20.02488889 0-36.40888889 16.384-36.40888888 36.40888888v145.63555556c0 20.02488889 16.384 36.40888889 36.40888888 36.40888889h36.4088889c20.02488889 0 36.40888889-16.384 36.40888888-36.40888889V117.75999999c0-20.02488889-16.384-36.40888889-36.40888888-36.40888888h-36.4088889z" p-id="999"></path></svg>