<?xml version="1.0" standalone="no"?><!DOCTYPE svg PUBLIC "-//W3C//DTD SVG 1.1//EN" "http://www.w3.org/Graphics/SVG/1.1/DTD/svg11.dtd"><svg t="1534939294584" class="icon" style="" viewBox="0 0 1024 1024" version="1.1" xmlns="http://www.w3.org/2000/svg" p-id="2148" xmlns:xlink="http://www.w3.org/1999/xlink" width="64" height="64"><defs><style type="text/css"></style></defs><path d="M96.91924859 461.04697363l0 101.95783468 104.39156623 0 0-101.95783468-104.39156623 0zM-4.98680415 616.39156622l0-208.73135051 1034.02539023 0 0 208.73135051-1034.02539023 0zM201.31081482 252.26384118l0-101.95783467-104.39156623 0 0 101.95783467 104.39156623 0zM-4.98680415 96.91924859l1034.02539023 0 0 208.73135051-1034.02539023 0 0-208.73135051zM96.91924859 771.73615882l0 101.95783467 104.39156623 0 0-101.95783467-104.39156623 0zM-4.98680415 927.08075141l0-208.73135051 1034.02539023 0 0 208.73135051-1034.02539023 0z" p-id="2149"></path></svg>