<?xml version="1.0" standalone="no"?><!DOCTYPE svg PUBLIC "-//W3C//DTD SVG 1.1//EN" "http://www.w3.org/Graphics/SVG/1.1/DTD/svg11.dtd"><svg t="1532014886453" class="icon" style="" viewBox="0 0 1024 1024" version="1.1" xmlns="http://www.w3.org/2000/svg" p-id="2330" xmlns:xlink="http://www.w3.org/1999/xlink" width="64" height="64"><defs><style type="text/css"></style></defs><path d="M970.2 440.8h-13.6c-34 0-64.8-21.6-75.6-53.8-5.6-16.8-12.4-33-20.2-48.8-15.2-30.6-9-67.6 15.2-91.8l9.6-9.6c16-16 16-42 0-58.2L844 137c-16-16-42-16-58.2 0l-9.6 9.6c-24.2 24.2-61.2 30.4-91.8 15.2-15.6-7.8-32-14.6-48.8-20.2-32.2-11-53.8-41.6-53.8-75.6v-13.6c0-22.6-18.4-41-41-41h-59c-22.6 0-41 18.4-41 41V66c0 34-21.6 64.8-53.8 75.6-16.8 5.6-33 12.4-48.8 20.2-30.6 15.2-67.6 9-91.8-15.2l-9.6-9.6c-16-16-42-16-58.2 0L137 178.6c-16 16-16 42 0 58.2l9.6 9.6c24.2 24.2 30.4 61.2 15.2 91.8-7.8 15.6-14.6 32-20.2 48.8-10.8 32.2-41.6 53.8-75.6 53.8h-13.6c-22.6 0-41 18.4-41 41v59c0 22.6 18.4 41 41 41H66c34 0 64.8 21.6 75.6 53.8 5.6 16.8 12.4 33 20.2 48.8 15.2 30.6 9 67.6-15.2 91.8l-9.6 9.6c-16 16-16 42 0 58.2l41.6 41.6c16 16 42 16 58.2 0l9.6-9.6c24.2-24.2 61.2-30.4 91.8-15.2 15.6 7.8 32 14.6 48.8 20.2 32.4 10.8 53.8 41.6 53.8 75.6v13.6c0 22.6 18.4 41 41 41h59c22.6 0 41-18.4 41-41v-13.6c0-34 21.6-64.8 53.8-75.6 16.8-5.6 33-12.4 48.8-20.2 30.6-15.2 67.6-9 91.8 15.2l9.6 9.6c16 16 42 16 58.2 0l41.6-41.6c16-16 16-42 0-58.2l-9.6-9.6c-24.2-24.2-30.4-61.2-15.2-91.8 7.8-15.6 14.6-32 20.2-48.8 10.8-32.4 41.6-53.8 75.6-53.8h13.6c22.6 0 41-18.4 41-41v-59c0-22.6-18.4-41-41-41zM511.2 767.2c-141.4 0-256-114.6-256-256s114.6-256 256-256 256 114.6 256 256-114.6 256-256 256z" p-id="2331"></path><path d="M511.2 511.2m-156 0a156 156 0 1 0 312 0 156 156 0 1 0-312 0Z" p-id="2332"></path></svg>
