<?xml version="1.0" standalone="no"?><!DOCTYPE svg PUBLIC "-//W3C//DTD SVG 1.1//EN" "http://www.w3.org/Graphics/SVG/1.1/DTD/svg11.dtd"><svg t="1533371878492" class="icon" style="" viewBox="0 0 1024 1024" version="1.1" xmlns="http://www.w3.org/2000/svg" p-id="3076" xmlns:xlink="http://www.w3.org/1999/xlink" width="64" height="64"><defs><style type="text/css"></style></defs><path d="M969.71207111 842.96817778q0 77.97646222-47.43623111 123.16444444T796.11448889 1011.32288H227.88551111q-78.6432 0-126.16135111-45.18798222t-47.43623111-123.16672q0-34.45304889 2.24711111-67.32458667t9.07150222-70.90403556 17.22595556-70.57066666 27.96202667-63.41404444 40.2784711-52.67911112 55.59182223-34.78528 72.48440889-12.98204444q5.82542222 0 27.29642666 13.97987556t48.4352 31.20810666 70.23729778 31.20810667 86.79879111 13.98101333 86.79879111-13.98101333 70.23729778-31.20810667 48.4352-31.20810666 27.29528889-13.98101334q39.69706667 0 72.48554667 12.98204444t55.59182222 34.78641778 40.27733333 52.67911112 27.96202667 63.41404444 17.22709333 70.57066666 9.07150223 70.90403556 2.24597333 67.32458667zM761.66144 262.33742222q0 103.36028445-73.15114667 176.51029333T512 512t-176.51029333-73.15114667-73.15114667-176.51029333 73.15114667-176.51029333T512 12.67825778t176.51029333 73.15000889 73.15114667 176.51029333z" p-id="3077"></path></svg>