<svg xmlns="http://www.w3.org/2000/svg" viewBox="0 0 1024 1024" width="100" height="48">
  <path d="M731.908197 496.891803c8.393443-1.678689 13.429508-11.75082 11.750819-20.144262-1.678689-8.393443-11.75082-13.429508-20.144262-11.75082L637.901639 486.819672c-13.429508 3.357377-16.786885 23.501639-5.036065 30.216394l60.432787 36.931147c8.393443 5.036066 18.465574 1.678689 23.501639-5.036065 5.036066-8.393443 1.678689-18.465574-5.036066-23.50164l-26.859016-16.786885 47.003279-11.75082zM330.701639 540.537705c-6.714754 6.714754-8.393443 16.786885-1.678688 23.501639s16.786885 8.393443 23.501639 1.678689l70.504918-58.754099c10.072131-8.393443 6.714754-26.859016-6.714754-28.537704L305.521311 453.245902c-8.393443-1.678689-18.465574 3.357377-20.144262 11.750819-1.678689 8.393443 3.357377 18.465574 11.75082 20.144263l75.540983 18.465573-41.967213 36.931148zM397.84918 671.47541c1.678689-1.678689 5.036066-3.357377 8.393443-8.393443 8.393443-6.714754 18.465574-11.75082 28.537705-18.465574 33.57377-18.465574 73.862295-28.537705 119.186885-26.859016 43.645902 1.678689 72.183607 10.072131 88.970492 25.180328 10.072131 8.393443 13.429508 16.786885 15.108197 20.144262 1.678689 8.393443 11.75082 15.108197 20.144262 13.429508 8.393443-1.678689 15.108197-11.75082 13.429508-20.144262-1.678689-10.072131-10.072131-25.180328-26.859016-38.609836-23.501639-20.144262-60.432787-31.895082-110.793443-33.57377-50.360656-1.678689-95.685246 10.072131-134.295082 30.216393-21.822951 11.75082-38.609836 23.501639-47.003279 31.895082-6.714754 6.714754-6.714754 16.786885 0 23.501639 8.393443 8.393443 18.465574 8.393443 25.180328 1.678689z" fill="#A5A9AA"></path>
</svg>
