<svg viewBox="0 0 1024 1024" xmlns="http://www.w3.org/2000/svg" width="64" height="64">
  <path d="M310.317511 903.463822a111.092622 107.019378 0 1 0 222.185245 0 111.092622 107.019378 0 1 0-222.185245 0Z" fill="currentColor" p-id="2474"></path>
  <path d="M421.410133 1010.460444c-61.257956 0-111.092622-47.991467-111.092622-106.996622 0-59.027911 49.834667-107.019378 111.092622-107.019378s111.092622 47.991467 111.092623 107.019378c-0.022756 59.005156-49.857422 106.996622-111.092623 106.996622z m0-168.504888c-36.158578 0-65.581511 27.602489-65.581511 61.508266s29.422933 61.485511 65.581511 61.485511 65.581511-27.579733 65.581511-61.485511S457.568711 841.955556 421.410133 841.955556z" fill="#666666" p-id="2475"></path>
  <path d="M738.531556 903.463822a111.092622 107.019378 0 1 0 222.185244 0 111.092622 107.019378 0 1 0-222.185244 0Z" fill="currentColor" p-id="2476"></path>
  <path d="M849.624178 1010.460444c-61.257956 0-111.115378-47.991467-111.115378-106.996622 0-59.027911 49.834667-107.019378 111.115378-107.019378 61.2352 0 111.092622 47.991467 111.092622 107.019378 0 59.005156-49.857422 106.996622-111.092622 106.996622z m0-168.504888c-36.181333 0-65.604267 27.602489-65.604267 61.508266s29.422933 61.485511 65.604267 61.485511c36.158578 0 65.581511-27.579733 65.581511-61.485511S885.782756 841.955556 849.624178 841.955556z" fill="#666666" p-id="2477"></path>
  <path d="M1001.244444 776.988444H317.007644a91.136 91.136 0 0 1-90.862933-85.583644C202.387911 294.229333 177.584356 170.006756 160.950044 135.736889c-23.210667-47.741156-64.603022-70.132622-125.929244-67.720533l-22.755556 0.796444-1.615644-45.488356 22.755556-0.796444C113.823289 19.683556 170.416356 51.063467 201.887289 115.848533c27.192889 56.024178 49.993956 243.393422 69.677511 572.8256a45.556622 45.556622 0 0 0 45.442844 42.780445H1001.244444v45.533866z" fill="#666666" p-id="2478"></path>
  <path d="M338.102044 681.824711l-4.3008-45.283555 544.221867-51.905423c9.966933-0.955733 18.295467-8.510578 20.184178-18.386489l76.549689-398.404266L257.069511 182.044444l-0.910222-45.511111 717.710222-14.222222c11.423289 0.2048 23.665778 4.278044 32.426667 12.6976a45.169778 45.169778 0 0 1 13.198222 41.278578l-76.572444 398.563555a68.676267 68.676267 0 0 1-60.575289 55.068445l-544.244623 51.905422z" fill="#666666" p-id="2479"></path>
</svg>
