<svg viewBox="0 0 1024 1024" version="1.1" xmlns="http://www.w3.org/2000/svg" width="64" height="64">
  <path d="M512 1006.545455c-39.098182 0-77.917091-4.561455-115.432727-13.544728a496.221091 496.221091 0 0 1-105.658182-38.493091c-6.981818-3.490909-16.011636-5.166545-27.601455-5.166545-16.896 0-33.093818 2.327273-78.894545 11.264l-63.534546 11.869091a23.272727 23.272727 0 1 1-25.972363-31.138909l14.522182-38.539637c21.922909-58.228364 19.921455-76.846545 8.098909-92.485818A492.590545 492.590545 0 0 1 17.454545 512a493.288727 493.288727 0 0 1 144.849455-349.696A493.288727 493.288727 0 0 1 319.488 56.32a498.315636 498.315636 0 0 1 384.977455 0c58.88 24.901818 111.709091 60.555636 157.184 105.984A492.776727 492.776727 0 0 1 1006.498909 512c0 66.792727-13.032727 131.537455-38.818909 192.465455a493.614545 493.614545 0 0 1-106.030545 157.230545 491.845818 491.845818 0 0 1-157.230546 106.030545 490.589091 490.589091 0 0 1-192.418909 38.81891z m-248.692364-103.749819c18.944 0 34.769455 3.304727 48.407273 10.100364 30.487273 15.266909 62.696727 26.996364 95.697455 34.862545a451.630545 451.630545 0 0 0 278.946909-22.900363 446.138182 446.138182 0 0 0 142.429091-96.023273 447.488 447.488 0 0 0 96.069818-142.475636c23.319273-55.156364 35.141818-113.803636 35.141818-174.312728s-11.822545-119.202909-35.188364-174.359272a448.186182 448.186182 0 0 0-96.023272-142.429091 446.650182 446.650182 0 0 0-142.429091-96.023273 451.630545 451.630545 0 0 0-348.718546 0 445.765818 445.765818 0 0 0-142.429091 95.976727 447.394909 447.394909 0 0 0-96.023272 142.429091A444.602182 444.602182 0 0 0 64 512a446.603636 446.603636 0 0 0 90.577455 270.149818c27.927273 36.864 20.526545 78.149818-1.629091 136.983273l22.481454-4.282182c45.847273-8.890182 66.001455-12.055273 87.877818-12.055273z" fill="#666666" p-id="33410"></path>
  <path d="M512 325.818182a186.181818 186.181818 0 1 1 0 372.363636 186.181818 186.181818 0 0 1 0-372.363636z" fill="currentColor" p-id="33411"></path>
  <path d="M512 744.727273c-128.325818 0-232.727273-104.401455-232.727273-232.727273s104.401455-232.727273 232.727273-232.727273 232.727273 104.401455 232.727273 232.727273-104.401455 232.727273-232.727273 232.727273z m0-418.909091c-102.679273 0-186.181818 83.502545-186.181818 186.181818s83.502545 186.181818 186.181818 186.181818 186.181818-83.502545 186.181818-186.181818-83.502545-186.181818-186.181818-186.181818z" fill="#666666" p-id="33412"></path>
</svg>
