<svg viewBox="0 0 1177 1024" xmlns="http://www.w3.org/2000/svg" width="73.5625" height="64">
  <path d="M153.6 0h716.8a153.6 153.6 0 0 1 153.6 153.6v409.6a153.6 153.6 0 0 1-153.6 153.6H153.6a153.6 153.6 0 0 1-153.6-153.6V153.6a153.6 153.6 0 0 1 153.6-153.6z" fill="currentColor" p-id="2720"></path>
  <path d="M844.8 716.8H179.2c-98.816 0-179.2-80.4096-179.2-179.2V179.2c0-98.816 80.384-179.2 179.2-179.2h665.6c98.7904 0 179.2 80.384 179.2 179.2v358.4c0 98.7904-80.4096 179.2-179.2 179.2zM179.2 51.2C108.6208 51.2 51.2 108.6208 51.2 179.2v358.4c0 70.5792 57.4208 128 128 128h665.6c70.5792 0 128-57.4208 128-128V179.2c0-70.5792-57.4208-128-128-128H179.2z" fill="#666666" p-id="2721"></path>
  <path d="M153.6 333.056C153.6 248.0896 222.3872 179.2 307.1744 179.2h716.8512A153.6 153.6 0 0 1 1177.6 333.056v448.0512c0 84.9664-68.608 153.856-153.4464 153.856h-110.336l-64.7936 65.0496c-19.968 20.0448-53.632 21.3504-74.9056 3.1232l-79.616-68.1728h-387.328A153.6512 153.6512 0 0 1 153.6 781.1072V333.056z" fill="#FFFFFF" p-id="2722"></path>
  <path d="M809.728 1015.9872a54.7328 54.7328 0 0 1-35.6096-12.8512l-79.5904-68.1728H307.1744C222.4896 934.9376 153.6 865.92 153.6 781.1072V333.056C153.6 248.2176 222.4896 179.2 307.1744 179.2h716.8512C1108.7104 179.2 1177.6 248.2176 1177.6 333.056v448.0512c0 84.8128-68.8128 153.856-153.4464 153.856h-110.336l-64.768 65.0752a55.808 55.808 0 0 1-39.3216 15.9488zM307.1744 230.4A102.656 102.656 0 0 0 204.8 333.056v448.0512a102.656 102.656 0 0 0 102.3744 102.656H713.472l96.256 81.024c1.5872 0 2.688-0.5376 3.0208-0.8704l79.8208-80.1536h131.584c56.3712 0 102.2464-46.0544 102.2464-102.656V333.056A102.656 102.656 0 0 0 1024.0256 230.4H307.1744z" fill="#666666" p-id="2723"></path>
  <path d="M384 576m-64 0a64 64 0 1 0 128 0 64 64 0 1 0-128 0Z" fill="currentColor" p-id="2724"></path>
  <path d="M384 665.6C334.592 665.6 294.4 625.408 294.4 576S334.592 486.4 384 486.4 473.6 526.592 473.6 576 433.408 665.6 384 665.6z m0-128C362.8288 537.6 345.6 554.8288 345.6 576S362.8288 614.4 384 614.4 422.4 597.1712 422.4 576 405.1712 537.6 384 537.6z" fill="#666666" p-id="2725"></path>
  <path d="M665.6 576m-64 0a64 64 0 1 0 128 0 64 64 0 1 0-128 0Z" fill="currentColor" p-id="2726"></path>
  <path d="M665.6 665.6C616.192 665.6 576 625.408 576 576S616.192 486.4 665.6 486.4 755.2 526.592 755.2 576 715.008 665.6 665.6 665.6z m0-128c-21.1712 0-38.4 17.2288-38.4 38.4S644.4288 614.4 665.6 614.4 704 597.1712 704 576 686.7712 537.6 665.6 537.6z" fill="#666666" p-id="2727"></path>
  <path d="M947.2 576m-64 0a64 64 0 1 0 128 0 64 64 0 1 0-128 0Z" fill="currentColor" p-id="2728"></path>
  <path d="M947.2 665.6C897.792 665.6 857.6 625.408 857.6 576S897.792 486.4 947.2 486.4 1036.8 526.592 1036.8 576 996.608 665.6 947.2 665.6z m0-128c-21.1712 0-38.4 17.2288-38.4 38.4S926.0288 614.4 947.2 614.4 985.6 597.1712 985.6 576 968.3712 537.6 947.2 537.6z" fill="#666666" p-id="2729"></path>
</svg>
