<svg viewBox="0 0 1024 1024" xmlns="http://www.w3.org/2000/svg" width="64" height="64">
  <path d="M1024 384H0V153.4208C0 68.8128 68.8896 0 153.5744 0h716.8512C955.1104 0 1024 68.8128 1024 153.4208V384zM51.2 332.8h921.6V153.4208A102.4256 102.4256 0 0 0 870.4256 51.2H153.5744A102.4256 102.4256 0 0 0 51.2 153.4208V332.8z" fill="#666666" p-id="2848"></path>
  <path d="M870.4256 1024H153.5744A153.728 153.728 0 0 1 0 870.4768V326.4h1024v544.0768A153.728 153.728 0 0 1 870.4256 1024zM51.2 377.6v492.8768A102.4768 102.4768 0 0 0 153.5744 972.8h716.8512A102.4768 102.4768 0 0 0 972.8 870.4768V377.6H51.2z" fill="#666666" p-id="2849"></path>
  <path d="M384 0h256v652.8l-128-90.752-128 90.752z" fill="currentColor" p-id="2850"></path>
  <path d="M640 652.8l-128-90.752-128 90.752V0h256v652.8z m-128-153.4976l76.8 54.4512V51.2h-153.6v502.5536l76.8-54.4512z" fill="#666666" p-id="2851"></path>
</svg>
