<svg viewBox="0 0 1365 1024" xmlns="http://www.w3.org/2000/svg" width="85.3125" height="64">
  <path d="M1228.8 896.182044H136.533333c-75.298133 0-136.533333-61.2352-136.533333-136.533333V159.288889c0-75.298133 61.2352-136.533333 136.533333-136.533333h585.773511c75.298133 0 136.533333 61.2352 136.533334 136.533333v12.583822h175.763911a160.199111 160.199111 0 0 1 113.800533 47.832178l171.440356 175.035733A158.469689 158.469689 0 0 1 1365.333333 506.220089v253.428622c0 75.275378-61.2352 136.533333-136.533333 136.533333zM136.533333 68.266667C86.334578 68.266667 45.511111 109.090133 45.511111 159.288889v600.359822c0 50.198756 40.823467 91.022222 91.022222 91.022222h1092.266667c50.198756 0 91.022222-40.823467 91.022222-91.022222V506.220089a113.095111 113.095111 0 0 0-32.517689-79.621689l-171.440355-175.035733a114.369422 114.369422 0 0 0-81.260089-34.156089h-221.275022V159.288889c0-50.198756-40.823467-91.022222-91.022223-91.022222H136.533333z" fill="#666666" p-id="1862"></path>
  <path d="M1002.473244 576.375467H819.2V273.066667h144.5888c38.820978 0 76.253867 14.153956 105.335467 39.822222a133.393067 133.393067 0 0 1 45.147022 100.033422v51.632356a111.911822 111.911822 0 0 1-111.798045 111.8208z m-137.762133-45.511111h137.762133a66.423467 66.423467 0 0 0 66.309689-66.332445v-51.632355a87.995733 87.995733 0 0 0-29.741511-65.900089A113.777778 113.777778 0 0 0 963.7888 318.577778H864.711111v212.286578zM286.264889 235.793067H682.666667v42.5984H286.264889v-42.5984z m88.109511 149.117155H682.666667v42.5984H374.3744v-42.5984z m66.059378 149.117156H682.666667v42.5984H440.433778v-42.5984z" fill="#666666" p-id="1863"></path>
  <path d="M1035.013689 1024c-85.128533 0-154.146133-66.7648-154.146133-149.117156s69.0176-149.117156 154.146133-149.117155 154.146133 66.7648 154.146133 149.117155S1120.142222 1024 1035.013689 1024z m-638.634667 0c-85.128533 0-154.146133-66.7648-154.146133-149.117156s69.0176-149.117156 154.146133-149.117155 154.146133 66.7648 154.146134 149.117155S481.530311 1024 396.379022 1024z" fill="currentColor" p-id="1864"></path>
  <path d="M1034.990933 1024c-84.992 0-154.123378-66.878578-154.123377-149.117156s69.131378-149.139911 154.123377-149.139911 154.146133 66.901333 154.146134 149.139911S1120.005689 1024 1034.990933 1024z m0-252.7232c-59.892622 0-108.612267 46.4896-108.612266 103.6288S975.121067 978.488889 1034.990933 978.488889c59.915378 0 108.635022-46.466844 108.635023-103.606045s-48.719644-103.606044-108.635023-103.606044zM396.379022 1024c-84.992 0-154.146133-66.878578-154.146133-149.117156s69.154133-149.139911 154.146133-149.139911 154.146133 66.901333 154.146134 149.139911S481.393778 1024 396.379022 1024z m0-252.7232c-59.915378 0-108.635022 46.4896-108.635022 103.6288S336.4864 978.488889 396.379022 978.488889s108.635022-46.466844 108.635022-103.606045-48.719644-103.606044-108.635022-103.606044z" fill="#666666" p-id="1865"></path>
</svg>
