<svg viewBox="0 0 1068 1024" xmlns="http://www.w3.org/2000/svg" width="66.75" height="64">
  <path d="M934.956522 578.782609h-801.391305c-35.617391 0-66.782609-13.356522-89.043478-37.843479-20.034783-24.486957-28.93913-57.878261-24.486956-93.495652l51.2-316.104348c11.130435-73.46087 82.365217-131.33913 155.826087-131.33913h616.626087c73.46087 0 142.469565 60.104348 153.6 131.33913l48.973913 313.878261c4.452174 35.617391-4.452174 69.008696-24.486957 93.495652-20.034783 26.713043-51.2 40.069565-86.817391 40.069566z m-705.669565-534.26087c-51.2 0-102.4 42.295652-111.304348 93.495652l-51.2 316.104348c-4.452174 22.26087 2.226087 42.295652 13.356521 57.878261 13.356522 15.582609 31.165217 22.26087 53.426087 22.26087h801.391305c22.26087 0 42.295652-8.904348 55.652174-22.26087 13.356522-15.582609 17.808696-35.617391 15.582608-57.878261l-48.973913-313.878261c-8.904348-51.2-57.878261-93.495652-109.078261-93.495652h-618.852173z" fill="#666666" p-id="2104"></path>
  <path d="M823.652174 1024h-578.782609c-73.46087 0-133.565217-60.104348-133.565217-133.565217v-356.173913h845.913043v356.173913c0 73.46087-60.104348 133.565217-133.565217 133.565217z m-667.826087-445.217391v311.652174c0 48.973913 40.069565 89.043478 89.043478 89.043478h578.782609c48.973913 0 89.043478-40.069565 89.043478-89.043478v-311.652174h-756.869565z" fill="#666666" p-id="2105"></path>
  <path d="M289.391304 756.869565c0-73.46087 60.104348-133.565217 133.565218-133.565217h222.608695c73.46087 0 133.565217 60.104348 133.565218 133.565217v267.130435h-489.739131v-267.130435z" fill="currentColor" p-id="2106"></path>
  <path d="M779.130435 1024h-489.739131v-267.130435c0-73.46087 60.104348-133.565217 133.565218-133.565217h222.608695c73.46087 0 133.565217 60.104348 133.565218 133.565217v267.130435z m-445.217392-44.521739h400.695653v-222.608696c0-48.973913-40.069565-89.043478-89.043479-89.043478h-222.608695c-48.973913 0-89.043478 40.069565-89.043479 89.043478v222.608696z" fill="#666666" p-id="2107"></path>
  <path d="M400.695652 690.086957h44.521739v311.652173h-44.521739zM512 690.086957h44.521739v311.652173h-44.521739zM623.304348 690.086957h44.521739v311.652173h-44.521739z" fill="#666666" p-id="2108"></path>
</svg>
