<svg viewBox="0 0 1024 1024" xmlns="http://www.w3.org/2000/svg" width="64" height="64">
  <path d="M512 960C252.8 960 42.666667 759.424 42.666667 512S252.8 64 512 64s469.333333 200.576 469.333333 448c0 88.576-26.922667 171.136-73.386666 240.64-17.322667 25.898667 29.44 106.24-1.28 132.693333-30.72 26.453333-112.426667-13.653333-143.424 5.12C690.602667 934.528 604.416 960 512 960z m0-42.666667c84.010667 0 170.56-12.885333 228.394667-62.912 38.272-33.088 112.938667 21.333333 134.272 0s-32-97.088-2.709334-124.693333C927.68 677.184 938.666667 592.128 938.666667 512c0-223.850667-191.018667-405.333333-426.666667-405.333333S85.333333 288.149333 85.333333 512s191.018667 405.333333 426.666667 405.333333zM250.069333 576a53.333333 53.333333 0 1 1 0-106.666667 53.333333 53.333333 0 0 1 0 106.666667z m270.229334 0a53.333333 53.333333 0 1 1 0-106.666667 53.333333 53.333333 0 0 1 0 106.666667z m270.229333 0a53.333333 53.333333 0 1 1 0-106.666667 53.333333 53.333333 0 0 1 0 106.666667z" fill="currentColor" p-id="3815"></path>
</svg>
