<svg viewBox="0 0 1024 1024" xmlns="http://www.w3.org/2000/svg" width="64" height="64">
  <path d="M780.014933 300.350578c0 150.960356-118.601956 273.339733-264.897422 273.339733-146.318222 0-264.920178-122.402133-264.920178-273.339733 0-150.983111 118.601956-273.362489 264.920178-273.362489 146.295467-0.022756 264.897422 122.379378 264.897422 273.362489z" fill="currentColor" p-id="1862"></path>
  <path d="M515.117511 596.445867c-158.628978 0-287.675733-132.824178-287.675733-296.095289C227.441778 137.056711 356.488533 4.209778 515.117511 4.209778c158.606222 0 287.652978 132.846933 287.652978 296.1408-0.022756 163.271111-129.069511 296.095289-287.652978 296.095289z m0-546.724978c-133.5296 0-242.164622 112.4352-242.164622 250.629689 0 138.171733 108.635022 250.584178 242.164622 250.584178 133.506844 0 242.141867-112.412444 242.141867-250.584178-0.022756-138.194489-108.635022-250.629689-242.141867-250.629689z" fill="#666666" p-id="1863"></path>
  <path d="M951.751111 1011.643733H78.916267a22.755556 22.755556 0 0 1-22.755556-22.755555c0-234.382222 214.471111-439.955911 458.9568-439.955911 242.870044 0 456.112356 202.843022 458.934045 435.268266a22.755556 22.755556 0 0 1-22.300445 27.4432z m-849.328355-45.511111h825.366755c-13.289244-200.521956-200.430933-371.689244-412.694755-371.689244S115.712 765.633422 102.422756 966.132622z" fill="#666666" p-id="1864"></path>
</svg>
