<svg viewBox="0 0 1078 1024" xmlns="http://www.w3.org/2000/svg" width="67.375" height="64">
  <path d="M537.599731 1023.999488C255.283072 1023.999488 25.599987 794.316403 25.599987 511.999744S255.283072 0 537.599731 0s511.999744 229.683085 511.999744 511.999744c0 116.633542-38.195181 226.508687-110.438345 317.695841l-40.14078-31.795184A456.038172 456.038172 0 0 0 998.399501 511.999744c0-254.079873-206.719897-460.79977-460.79977-460.79977S76.799962 257.919871 76.799962 511.999744s206.719897 460.79977 460.799769 460.79977c56.191972 0 111.078344-10.009595 163.071919-29.695986l18.150391 47.897576A510.130945 510.130945 0 0 1 537.599731 1023.999488z" fill="#666666" p-id="2598"></path>
  <path d="M932.556334 834.073183a41.727979 41.727979 0 0 1-21.37599-5.478397c-18.662391-10.598395-23.244788-30.745585-30.924784-64.127968a1027.225086 1027.225086 0 0 0-32.025584-114.022343l48.460776-16.588792c18.585591 54.169573 27.545586 93.311953 33.484783 119.16794 2.611199 11.263994 5.247997 22.835189 7.423996 29.286386 7.475196-1.535999 20.81279-5.836797 33.843183-10.035195 22.246389-7.167996 52.761574-17.023991 95.001553-27.673586l12.492794 49.638375a1358.847321 1358.847321 0 0 0-91.801555 26.751987c-23.679988 7.654396-40.49918 13.081593-54.579172 13.081593z" fill="#666666" p-id="2599"></path>
  <path d="M524.799738 499.19975m-319.99984 0a319.99984 319.99984 0 1 0 639.99968 0 319.99984 319.99984 0 1 0-639.99968 0Z" fill="currentColor" p-id="2600"></path>
  <path d="M438.706981 307.199846c-30.540785 0-38.246381 30.028785-17.356792 66.790367l76.031962 133.811133h-82.687958v27.929586h98.35515v54.758373h-98.38075v27.929586h98.35515v87.731156h49.177576v-87.731156h98.89275v-27.929586h-98.89275v-54.758373h98.89275v-27.929586h-83.251158l76.031962-133.811133c20.96639-36.889582 3.558398-66.790367-17.356791-66.790367h25.727987c-14.207993 0-31.180784 10.111995-37.836781 22.476789L537.599731 490.470155l-86.783956-160.79352c-6.681597-12.415994-23.577588-22.476789-37.836781-22.476789h25.727987z" fill="#666666" p-id="2601"></path>
</svg>
