<svg viewBox="0 0 1024 1024" xmlns="http://www.w3.org/2000/svg" width="64" height="64">
  <path d="M247.148089 983.927467c-6.690133 0-13.1072-1.342578-19.0464-4.004978-37.933511-16.952889-34.884267-72.339911-32.199111-121.173333 0.978489-17.908622 2.4576-44.487111-0.386845-53.156978C80.327111 723.717689 14.336 603.318044 14.336 474.885689 14.336 238.136889 238.910578 45.511111 514.958222 45.511111s500.622222 192.625778 500.622222 429.374578-224.574578 429.374578-500.622222 429.374578a580.494222 580.494222 0 0 1-133.779911-15.496534c-7.145244 2.571378-27.488711 22.345956-41.028267 35.544178-30.173867 29.309156-61.348978 59.619556-93.001955 59.619556zM514.958222 91.022222c-250.948267 0-455.111111 172.191289-455.111111 383.863467 0 114.210133 59.778844 221.730133 164.022045 295.003022 21.686044 15.246222 19.842844 48.833422 17.499022 91.386311-1.069511 19.547022-3.936711 71.543467 5.302044 77.118578l0.500622 0.045511c13.175467 0 43.281067-29.263644 61.257956-46.762667 27.921067-27.101867 49.948444-48.560356 73.227378-48.560355 2.844444 0 5.666133 0.341333 8.351289 0.978489 40.459378 9.739378 82.511644 14.677333 124.973511 14.677333 250.948267 0 455.111111-172.191289 455.111111-383.863467S765.906489 91.022222 514.958222 91.022222z" fill="#666666" p-id="2349"></path>
  <path d="M236.202667 486.286222a61.872356 55.546311 0 1 0 123.744711 0 61.872356 55.546311 0 1 0-123.744711 0Z" fill="#FFF252" p-id="2350"></path><path d="M298.075022 564.610844c-46.648889 0-84.627911-35.134578-84.627911-78.301866S251.403378 407.984356 298.075022 407.984356 382.702933 443.118933 382.702933 486.286222 344.723911 564.610844 298.075022 564.610844z m0-111.115377C276.502756 453.495467 258.958222 468.218311 258.958222 486.308978s17.544533 32.790756 39.1168 32.790755 39.1168-14.700089 39.1168-32.790755S319.624533 453.495467 298.075022 453.495467z" fill="#666666" p-id="2351"></path>
  <path d="M463.0528 486.286222a61.872356 55.546311 0 1 0 123.744711 0 61.872356 55.546311 0 1 0-123.744711 0Z" fill="#FFF252" p-id="2352"></path>
  <path d="M524.9024 564.610844c-46.648889 0-84.627911-35.134578-84.627911-78.301866S478.253511 407.984356 524.9024 407.984356c46.671644 0 84.627911 35.134578 84.627911 78.301866s-37.956267 78.324622-84.627911 78.324622z m0-111.115377c-21.572267 0-39.1168 14.700089-39.1168 32.790755s17.544533 32.790756 39.1168 32.790756c21.549511 0 39.1168-14.700089 39.1168-32.790756S546.474667 453.495467 524.9024 453.495467z" fill="#666666" p-id="2353"></path>
  <path d="M689.880178 486.286222a61.872356 55.546311 0 1 0 123.744711 0 61.872356 55.546311 0 1 0-123.744711 0Z" fill="#FFF252" p-id="2354"></path>
  <path d="M751.752533 564.610844c-46.671644 0-84.627911-35.134578-84.627911-78.301866S705.080889 407.984356 751.752533 407.984356s84.627911 35.134578 84.627911 78.301866-37.956267 78.324622-84.627911 78.324622z m0-111.115377c-21.549511 0-39.1168 14.700089-39.1168 32.790755s17.544533 32.790756 39.1168 32.790756 39.1168-14.700089 39.1168-32.790756S773.302044 453.495467 751.752533 453.495467z" fill="#666666" p-id="2355"></path>
</svg>
