<svg viewBox="0 0 1024 1024" xmlns="http://www.w3.org/2000/svg" width="64" height="64">
  <path d="M849.658553 1024H152.423489C92.39966 1024 43.574468 975.065872 43.574468 914.889532V109.088681C43.574468 48.934128 92.39966 0 152.423489 0h697.235064A130.897702 130.897702 0 0 1 980.425532 130.723404v762.553192c0 72.093957-58.651234 130.723404-130.766979 130.723404zM152.423489 43.574468A65.470638 65.470638 0 0 0 87.148936 109.088681v805.800851A65.492426 65.492426 0 0 0 152.423489 980.425532h697.235064A87.257872 87.257872 0 0 0 936.851064 893.276596V130.723404c0-48.062638-39.108085-87.148936-87.192511-87.148936H152.423489z" fill="#666666" p-id="1983"></path>
  <path d="M588.255319 43.574468h174.297872v278.876596l-87.148936-65.078468-87.148936 65.078468z" fill="currentColor" p-id="1984"></path>
  <path d="M806.12766 409.36034l-130.723405-97.585021-130.723404 97.585021V0h261.446809v409.36034z m-130.723405-151.987744l87.148936 65.056681V43.574468h-174.297872v278.876596l87.148936-65.078468zM217.87234 239.659574h43.574469v566.468086H217.87234z" fill="#666666" p-id="1985"></path>
</svg>
