<svg viewBox="0 0 1024 1024" xmlns="http://www.w3.org/2000/svg" width="64" height="64">
  <path d="M532.0704 781.858133c-11.195733-5.757156-29.377422-5.757156-40.573156 0l-85.697422 44.077511c-11.195733 5.757156-18.545778 0.546133-16.361244-11.969422l16.247466-92.728889c2.161778-12.379022-3.413333-29.400178-12.4928-38.047289l-69.336177-66.104888c-9.056711-8.647111-6.257778-17.089422 6.257777-18.864356l95.800889-13.607822c12.515556-1.774933 27.215644-12.219733 32.9728-23.620267l42.575645-84.3776c5.688889-11.264 14.813867-11.377778 20.571022 0l42.575644 84.3776c5.688889 11.264 20.434489 21.822578 32.9728 23.620267l95.800889 13.607822c12.515556 1.774933 15.337244 10.24 6.257778 18.864356l-69.336178 66.104888c-9.056711 8.647111-14.677333 25.531733-12.4928 38.047289l16.247467 92.728889c2.161778 12.379022-5.142756 17.726578-16.361244 11.969422l-85.629156-44.077511z" fill="currentColor" p-id="3094"></path>
  <path d="M397.562311 851.012267c-9.4208 0-17.8176-3.822933-23.688533-10.808889-6.485333-7.714133-8.920178-18.432-6.849422-30.173867l16.270222-92.751644c0.841956-4.869689-2.230044-14.267733-5.779911-17.658311l-69.313423-66.082134c-10.8544-10.331022-14.836622-23.233422-10.945422-35.384889 3.913956-12.174222 14.7456-20.388978 29.718756-22.505244l95.800889-13.630578c5.211022-0.728178 13.494044-6.644622 15.837866-11.309511l42.575645-84.3776c6.7584-13.357511 17.908622-21.003378 30.628978-21.003378s23.870578 7.645867 30.606222 20.980622l42.552889 84.3776c2.366578 4.664889 10.6496 10.581333 15.837866 11.309512l95.823645 13.630577c14.973156 2.139022 25.8048 10.331022 29.718755 22.505245 3.8912 12.105956-0.091022 25.008356-10.899911 35.362133l-69.358933 66.104889c-3.640889 3.458844-6.667378 12.720356-5.779911 17.658311l16.270222 92.728889c2.048 11.764622-0.432356 22.459733-6.917689 30.173867-9.648356 11.446044-26.350933 14.108444-42.257067 5.984711l-85.720177-44.100267c-3.231289-1.683911-16.520533-1.6384-19.774578 0l-85.674667 44.100267a40.641422 40.641422 0 0 1-18.682311 4.869689z m114.232889-96.233245c7.941689 0 19.706311 1.183289 30.674489 6.826667l65.262933 33.5872-12.288-70.018845c-3.4816-19.933867 4.573867-44.509867 19.205689-58.459022l51.768889-49.3568-72.021333-10.24c-19.979378-2.844444-41.051022-17.931378-50.084978-35.908266l-32.517689-64.466489-32.540444 64.489244c-9.033956 17.954133-30.1056 33.041067-50.062223 35.885511l-72.021333 10.24 51.768889 49.3568c14.631822 13.9264 22.687289 38.5024 19.205689 58.459022l-12.288 70.018845 65.240178-33.5872c10.990933-5.643378 22.755556-6.826667 30.697244-6.826667z" fill="#666666" p-id="3095"></path>
  <path d="M827.778844 1019.312356H190.327467c-48.583111 0-92.592356-18.8416-123.904-53.0432C35.066311 932.022044 20.161422 886.465422 24.439467 837.950578l37.2736-422.388622c8.829156-99.987911 97.666844-181.339022 198.064355-181.339023h482.144711c100.374756 0 190.941867 81.237333 201.841778 181.088711l46.148267 422.866489c5.279289 48.401067-8.715378 93.934933-39.389867 128.159289-30.651733 34.178844-74.228622 52.974933-122.743467 52.974934zM259.777422 279.734044c-77.4144 0-145.931378 62.737067-152.735289 139.832889L69.768533 841.955556c-3.140267 35.612444 7.5776 68.858311 30.219378 93.570844 22.596267 24.689778 54.6816 38.274844 90.339556 38.274844h637.451377c35.4304 0 66.946844-13.448533 88.837689-37.842488 21.959111-24.462222 31.903289-57.412267 28.034845-92.819912l-46.148267-422.866488c-8.465067-77.482667-78.711467-140.515556-156.603733-140.515556H259.777422z" fill="#666666" p-id="3096"></path>
  <path d="M796.444444 250.311111h-45.511111c0-112.913067-107.178667-204.8-238.933333-204.8S273.066667 137.398044 273.066667 250.311111H227.555556C227.555556 112.298667 355.145956 0 512 0S796.444444 112.298667 796.444444 250.311111z" fill="#666666" p-id="3097"></path>
</svg>
