<svg viewBox="0 0 1024 1024" version="1.1" xmlns="http://www.w3.org/2000/svg" width="64" height="64">
  <path d="M82.7648 74.2144C93.6192 33.2288 136.704 0 179.3024 0h644.4032c42.4704 0 84.48 33.3568 93.9776 75.0848L947.2 204.8H48.2048l34.56-130.5856z" fill="currentColor" p-id="2970"></path>
  <path d="M947.2 204.8H48.2048l34.56-130.5856C93.5936 33.3056 136.9088 0 179.3024 0h644.4032c42.3936 0 84.5824 33.6896 93.9776 75.1104L947.2 204.8zM114.7136 153.6h768.3328l-15.2832-67.1488C863.5648 67.9936 842.5472 51.2 823.7056 51.2H179.3024c-19.2768 0-42.1376 17.5616-47.0528 36.1216L114.7136 153.6z" fill="#666666" p-id="2971"></path>
  <path d="M844.8 1024H179.2c-98.816 0-179.2-80.4096-179.2-179.2V332.8c0-98.816 80.384-179.2 179.2-179.2h665.6c98.7904 0 179.2 80.384 179.2 179.2v512c0 98.7904-80.4096 179.2-179.2 179.2zM179.2 204.8c-70.5792 0-128 57.4208-128 128v512c0 70.5792 57.4208 128 128 128h665.6c70.5792 0 128-57.4208 128-128V332.8c0-70.5792-57.4208-128-128-128H179.2z" fill="#666666" p-id="2972"></path>
  <path d="M1024 768H537.6256A76.9024 76.9024 0 0 1 460.8 691.2256v-179.2512A76.8768 76.8768 0 0 1 537.6256 435.2H1024v332.8zM537.6256 486.4c-14.1312 0-25.6256 11.4688-25.6256 25.5744v179.2512c0 14.1056 11.4944 25.5744 25.6256 25.5744H972.8v-230.4H537.6256z" fill="#666666" p-id="2973"></path>
  <path d="M601.6 691.2c-49.408 0-89.6-40.192-89.6-89.6s40.192-89.6 89.6-89.6 89.6 40.192 89.6 89.6-40.192 89.6-89.6 89.6z m0-128c-21.1712 0-38.4 17.2288-38.4 38.4s17.2288 38.4 38.4 38.4 38.4-17.2288 38.4-38.4-17.2288-38.4-38.4-38.4z" fill="#666666" p-id="2974"></path>
  <path d="M601.6 601.6m-64 0a64 64 0 1 0 128 0 64 64 0 1 0-128 0Z" fill="currentColor" p-id="2975"></path>
</svg>
